# xmcd
# Track frame offsets:
# 150
# 12030
# 24363
# 37382
# 50648
# 63355
# 75874
# 88547
# 100924
# 113688
# 126812
# 140132
# 151372
# 162549
# 174976
# 185950
# 198310
# 210030
# 222024
# 234476
#
# Disc length: 3281 seconds
# Revision: 0
# Processed by: cddbd v1.5.2PL0 Copyright (c) Steve Scherf et al.
# Submitted via: VisiTrax 2.11.1.266 - For more info visit www.synapsa.com
#
DISCID=0a0ccf14
DTITLE=Hank Williams - Calling You
DYEAR=2006
DGENRE=
TTITLE0=A Mansion on the Hill
TTITLE1=Lost Highway
TTITLE2=I'm A Long Gone Daddy
TTITLE3=Wedding Bells
TTITLE4=I'm So Lonesome I Could Cry
TTITLE5=I Saw The Light
TTITLE6=Wealth Won't Save Your Soul
TTITLE7=(Last Night) I Heard You Crying In Your Sleep
TTITLE8=I Don't Care (If Tomorrow Never Comes)
TTITLE9=Calling You
TTITLE10=Hey, Good Lookin'
TTITLE11=Crazy Heart
TTITLE12=(I Heard That) Lonesome Whistle
TTITLE13=Half As Much
TTITLE14=I Can't Help It (If I'm Still In Love With You)
TTITLE15=I'm Sorry For You My Friend
TTITLE16=My Son Calls Another Man Daddy
TTITLE17=Why Should We Try Anymore
TTITLE18=Cold, Cold Heart
TTITLE19=Dear John
EXTD=
EXTT0=
EXTT1=
EXTT2=
EXTT3=
EXTT4=
EXTT5=
EXTT6=
EXTT7=
EXTT8=
EXTT9=
EXTT10=
EXTT11=
EXTT12=
EXTT13=
EXTT14=
EXTT15=
EXTT16=
EXTT17=
EXTT18=
EXTT19=
PLAYORDER=
